<?xml version="1.0" standalone="no"?>
<!DOCTYPE svg PUBLIC "-//W3C//DTD SVG 1.1//EN" "http://www.w3.org/Graphics/SVG/1.1/DTD/svg11.dtd" >
<svg xmlns="http://www.w3.org/2000/svg" xmlns:xlink="http://www.w3.org/1999/xlink" version="1.1">
<metadata></metadata>
<defs>
<font id="zag_regularregular" horiz-adv-x="831" >
<font-face units-per-em="2048" ascent="1638" descent="-410" />
<missing-glyph horiz-adv-x="563" />
<glyph horiz-adv-x="0" />
<glyph horiz-adv-x="682" />
<glyph unicode=" "  horiz-adv-x="563" />
<glyph unicode="&#x09;" horiz-adv-x="563" />
<glyph unicode="&#xa0;" horiz-adv-x="563" />
<glyph unicode="!" horiz-adv-x="376" d="M4 80q0 38 23 61t57 23q40 0 66 -22.5t26 -61.5q0 -37 -27 -64.5t-65 -27.5q-32 0 -56 27.5t-24 64.5zM20 254v1149h132v-1149h-132z" />
<glyph unicode="&#x22;" horiz-adv-x="532" d="M2 950v453h129v-453h-129zM229 950v453h131v-453h-131z" />
<glyph unicode="#" horiz-adv-x="1036" d="M-76 356v129h203l76 387h-199v127h217l74 404h137l-72 -404h166l76 404h133l-71 -404h184v-127h-209l-2 -18l-64 -365l2 -4h203v-129h-233l-68 -356h-137l70 356h-168l-64 -356h-135l61 356h-180zM264 485h174q56 322 66 387h-170q-12 -64 -34 -189.5t-36 -197.5z" />
<glyph unicode="$" horiz-adv-x="899" d="M-2 352h129q0 -111 67 -172t160 -61t163.5 52t70.5 142v152q0 40 -14.5 70.5t-35.5 49t-57 32.5t-64.5 20.5t-72.5 13.5q-37 8 -57 12.5t-54.5 13.5t-54 17.5t-47.5 23t-44.5 30.5t-35.5 39t-29 49.5t-17 62t-7 76.5v119q0 137 85 221t214 98v103h129v-107 q123 -24 208 -115.5t85 -238.5h-131q0 108 -69 170.5t-161 62.5q-94 0 -162.5 -52.5t-68.5 -141.5v-119q0 -149 246 -195q42 -9 70 -15.5t68 -20t66 -28t55.5 -38.5t46.5 -53t28.5 -70t11.5 -90v-152q0 -137 -85 -220.5t-214 -102.5v-92h-129v92q-130 20 -212 112t-81 250z " />
<glyph unicode="%" horiz-adv-x="1267" d="M-27 1057q2 143 73.5 240t197.5 96q118 -3 192 -106t72 -247q-3 -141 -74 -235.5t-196 -91.5q-119 0 -193 101t-72 243zM-14 -2q220 335 526 825q210 328 369 582h149q-45 -72 -155 -244t-160 -252q-534 -837 -582 -911h-147zM100 1059q0 -89 36.5 -150.5t99.5 -64.5 q67 -1 103.5 54.5t41.5 141.5q2 87 -37 150.5t-100 64.5q-67 1 -104 -55t-40 -141zM504 340q1 93 31 168.5t91.5 122.5t145.5 45q118 -3 192 -105.5t72 -244.5q-2 -92 -32.5 -166.5t-92 -120t-145.5 -43.5q-78 0 -139.5 48.5t-92.5 126.5t-30 169zM629 342q-2 -88 35.5 -150 t101.5 -65q67 -1 103.5 54t41.5 143q3 87 -36.5 150.5t-102.5 66.5q-67 1 -103.5 -55t-39.5 -144z" />
<glyph unicode="&#x26;" horiz-adv-x="919" d="M0 322v159q0 73 40 141.5t103 110.5q-60 40 -94.5 106t-34.5 144v107q0 134 87 222.5t223 88.5q80 0 154.5 -46.5t127.5 -123.5l-106 -78q-36 57 -82.5 87t-93.5 30q-75 0 -128 -52.5t-53 -127.5v-107q0 -72 48.5 -128t119.5 -56h203v96h129v-96h135v-131h-135v-340 q0 -52 12.5 -90.5t29.5 -58t40.5 -30.5t39 -13.5t32.5 -2.5v-131q-83 0 -151 46.5t-81 125.5q-13 -77 -89.5 -127.5t-153.5 -50.5q-138 0 -230 94t-92 232zM131 322q0 -80 56.5 -137.5t134.5 -57.5q81 0 136.5 58.5t55.5 142.5v340h-205q-72 0 -125 -57.5t-53 -129.5v-159z " />
<glyph unicode="'" horiz-adv-x="344" d="M16 930v473h129v-473h-129z" />
<glyph unicode="(" horiz-adv-x="485" d="M4 700q0 255 77 479.5t222 342.5l78 -103q-115 -97 -180.5 -296.5t-65.5 -424.5q0 -226 62 -420.5t178 -293.5l-74 -107q-143 117 -220 343t-77 480z" />
<glyph unicode=")" horiz-adv-x="495" d="M-88 1419l76 103q145 -118 222 -342.5t77 -479.5q0 -254 -77 -480t-220 -343l-72 107q115 101 177.5 295t62.5 419q0 227 -65 425.5t-181 295.5z" />
<glyph unicode="*" horiz-adv-x="858" d="M-10 1143l69 114l199 -133q-1 42 -4.5 138t-3.5 102h129l-10 -236q27 18 96.5 64.5t103.5 67.5l35 -54l33 -65l-207 -105q28 -16 100 -55.5t109 -60.5l-72 -119l-202 149q2 -43 7 -129t7 -125h-129l6 248q-31 -25 -101.5 -75t-95.5 -70l-30 53l-37 70l207 110 q-125 64 -209 111z" />
<glyph unicode="+" horiz-adv-x="770" d="M-14 612v129h231v244h129v-244h232v-129h-232v-241h-129v241h-231z" />
<glyph unicode="," horiz-adv-x="288" d="M-27 -92l35 100q-28 17 -28 64q0 34 23 58t60 24q41 0 66.5 -37t5.5 -88l-74 -152z" />
<glyph unicode="-" d="M-12 537v131h616v-131h-616z" />
<glyph unicode="." horiz-adv-x="253" d="M-33 84q0 39 24 64.5t62 25.5q41 0 66.5 -25.5t25.5 -64.5q0 -40 -25.5 -64t-66.5 -24q-38 0 -62 24t-24 64z" />
<glyph unicode="/" horiz-adv-x="765" d="M-94 -78l495 1536h142l-502 -1536h-135z" />
<glyph unicode="0" horiz-adv-x="940" d="M2 315v762q0 103 54 178t135.5 109.5t177.5 34.5q94 0 174.5 -34.5t135 -109.5t54.5 -178v-762q0 -80 -31.5 -144t-83.5 -103t-116 -59.5t-133 -20.5q-97 0 -178 34.5t-135 110.5t-54 182zM131 315q0 -93 70 -144.5t168 -51.5q94 0 163.5 51.5t69.5 144.5v762 q0 89 -70 140t-163 51q-97 0 -167.5 -51t-70.5 -140v-762z" />
<glyph unicode="1" horiz-adv-x="438" d="M-66 1272v131h226q71 0 71 -76v-1327h-129v1272h-168z" />
<glyph unicode="2" horiz-adv-x="917" d="M0 76v295q0 106 53.5 180.5t134.5 107.5t179 33q94 0 153.5 49.5t59.5 139.5v196q0 90 -66.5 141.5t-157.5 51.5q-93 0 -160.5 -60.5t-68.5 -169.5h-127q0 87 30 157t80.5 114t113.5 67t132 23q67 0 129 -20.5t113.5 -59.5t82 -102.5t30.5 -141.5v-196 q-1 -148 -95.5 -233t-248.5 -85q-99 0 -169.5 -49.5t-70.5 -142.5v-242h555v-129h-610q-46 0 -59 15t-13 61z" />
<glyph unicode="3" horiz-adv-x="927" d="M-2 350h129q0 -110 70.5 -171.5t167.5 -61.5q93 0 162 51.5t69 142.5v174q0 77 -67.5 133t-161.5 56v133q94 0 161.5 57t67.5 135v74q0 91 -69 143t-162 52q-97 0 -167.5 -61t-70.5 -171h-129q0 88 30.5 159t82 115t116 67.5t135.5 23.5q69 0 133 -21t116.5 -60.5 t84 -103.5t31.5 -143v-74q0 -70 -46 -144.5t-116 -113.5q69 -36 115.5 -111.5t46.5 -144.5v-174q0 -104 -54.5 -180t-135.5 -110.5t-175 -34.5q-96 0 -177 39.5t-134 124t-53 200.5z" />
<glyph unicode="4" horiz-adv-x="886" d="M2 602v801h131v-744h424v744h129v-1403h-129v530h-481q-74 0 -74 72z" />
<glyph unicode="5" horiz-adv-x="905" d="M-12 338h129q0 -103 64.5 -161t154.5 -58q95 0 165 52.5t70 145.5v211q0 75 -55 130t-131 55h-305q-31 0 -54.5 21.5t-23.5 53.5v537q0 34 23.5 55t54.5 21h553v-131h-500v-426h252q127 0 222 -95.5t95 -220.5v-211q0 -80 -31.5 -144t-83.5 -103.5t-116.5 -60.5 t-134.5 -21q-92 0 -169 38t-127.5 119t-51.5 193z" />
<glyph unicode="6" horiz-adv-x="925" d="M0 315v772q0 79 29.5 141.5t80 101t114 58t134.5 19.5q90 0 161.5 -26t144.5 -103q-6 -5 -26 -21.5t-26 -21.5q-3 -2 -9 -7t-9 -7q-1 -1 -3.5 -3t-4.5 -4l-21 -20q-87 84 -207 84q-96 0 -163.5 -50.5t-67.5 -140.5v-317q30 63 98.5 96t136.5 33q72 0 135.5 -19.5t115 -57 t82 -99.5t30.5 -141v-267q0 -79 -31.5 -142.5t-83.5 -102.5t-116 -59.5t-132 -20.5q-95 0 -175.5 34.5t-133.5 110t-53 180.5zM127 315q0 -91 69 -142.5t164 -51.5q92 0 161.5 51.5t72.5 142.5v267q0 90 -68 139t-164 49q-98 0 -166.5 -50.5t-68.5 -144.5v-260z" />
<glyph unicode="7" horiz-adv-x="870" d="M-47 1272v131h647q70 0 70 -72v-217q0 -100 -66 -196l-352 -484q-39 -61 -39 -133v-301h-129v301q0 119 61 205q3 4 24 31t30 43q77 104 125 170q29 44 69 98q37 51 107 149q43 60 43 119v156h-590z" />
<glyph unicode="8" horiz-adv-x="911" d="M0 313v162q0 75 53 154.5t123 99.5q-70 25 -118 104t-48 154v117q0 77 30.5 139t81 100t114 58t133.5 20q67 0 129.5 -20t113.5 -58t82 -100t31 -139v-117q0 -85 -47.5 -164t-128.5 -90q82 -13 133 -94t51 -164v-162q0 -80 -31.5 -145t-84 -104.5t-117 -60.5t-133.5 -21 q-71 0 -136 21t-117 60.5t-83 104t-31 145.5zM129 313q0 -93 70.5 -146.5t167.5 -53.5q95 0 165 53.5t70 146.5v162q0 78 -53.5 134t-130.5 59h-103q-77 -3 -131.5 -59t-54.5 -134v-162zM139 987q0 -81 51.5 -137t133.5 -57q42 -3 88 0q78 1 130 58t52 136v117 q0 87 -67.5 137.5t-157.5 50.5q-94 0 -162 -50t-68 -138v-117z" />
<glyph unicode="9" horiz-adv-x="927" d="M0 815v264q0 79 30.5 142.5t82.5 103t115.5 60t133.5 20.5q55 0 107 -12.5t98.5 -39.5t81.5 -64.5t55.5 -91.5t20.5 -118v-772q0 -106 -52.5 -180.5t-131.5 -107.5t-174 -33q-87 0 -161.5 27.5t-146.5 103.5l103 86q81 -86 205 -86q94 0 161.5 49.5t67.5 140.5v320 q-14 -51 -56.5 -82.5t-85.5 -41t-92 -9.5q-73 0 -137 19.5t-115 57.5t-80.5 101t-29.5 143zM127 815q0 -91 68 -140.5t167 -49.5q96 0 165 51t69 145v258q0 91 -69.5 143t-161.5 52q-95 0 -165 -51.5t-73 -143.5v-264z" />
<glyph unicode=":" horiz-adv-x="339" d="M-8 283q0 34 22 59t56 25q37 0 61.5 -25.5t24.5 -58.5q0 -38 -23.5 -60t-62.5 -22q-36 0 -57 22t-21 60zM-8 719q0 32 22 57t56 25q37 0 61.5 -25t24.5 -57q0 -37 -24 -59.5t-62 -22.5q-35 0 -56.5 22.5t-21.5 59.5z" />
<glyph unicode=";" horiz-adv-x="339" d="M-14 281q0 34 23.5 60t60.5 26t61.5 -25.5t24.5 -58.5q0 -6 -11 -39q0 -4 -24 -74q-9 -37 -31 -92l-90 12l25 121q-39 20 -39 70zM-8 719q0 32 22 57t56 25q37 0 61.5 -25t24.5 -57q0 -37 -24 -59.5t-62 -22.5q-35 0 -56.5 22.5t-21.5 59.5z" />
<glyph unicode="&#x3c;" horiz-adv-x="774" d="M-2 601.5q-1 36.5 35 55.5h-2q411 240 471 277v-152q-29 -16 -92 -49.5t-84 -44.5q-22 -13 -75 -40.5t-85 -47.5q11 -6 35.5 -17.5t36.5 -17.5q185 -99 264 -149v-152l-473 279q-30 22 -31 58.5z" />
<glyph unicode="=" horiz-adv-x="880" d="M0 532v130h623v-130h-623zM0 774v129h623v-129h-623z" />
<glyph unicode="&#x3e;" horiz-adv-x="663" d="M0 264v154q90 54 244 135q21 11 47 25t41 22q-136 68 -332 182v152q172 -106 469 -277h-2q37 -18 36 -56.5t-34 -57.5z" />
<glyph unicode="?" horiz-adv-x="829" d="M-16 1047q7 147 101 246.5t222 99.5q132 0 228 -93.5t96 -228.5v-115q0 -184 -178 -290q-42 -24 -68.5 -67t-26.5 -93v-227h-131v227q0 90 42.5 162t115.5 116q115 66 115 174v113q0 78 -56.5 133.5t-136.5 55.5q-75 0 -132 -68.5t-58 -163.5zM205 76q0 40 25 66t67 26 q32 0 58 -27t26 -65q0 -32 -26.5 -60t-57.5 -28q-41 0 -66.5 27t-25.5 61z" />
<glyph unicode="@" horiz-adv-x="1234" d="M-6 303v356q-1 117 45 220t121 171.5t168.5 108t187.5 39.5q72 0 145 -19t141 -59t121 -95t85.5 -133.5t33.5 -168.5v-625q0 -49 -23 -86.5t-58.5 -56.5t-78.5 -22t-81.5 10.5t-69 47.5t-39.5 83q-64 -56 -174 -56q-117 -3 -206 84t-89 205v357q0 116 88.5 201t206.5 85 q102 0 170 -59v27l143 10q-47 63 -139.5 100t-179.5 37q-69 0 -139 -31t-126.5 -83t-91 -129.5t-32.5 -162.5v-356q0 -115 59.5 -204.5t153 -135t201.5 -45.5q49 0 165 33l37 -129q-119 -35 -202 -35q-85 0 -164.5 21.5t-148 65.5t-120 104.5t-81 144.5t-29.5 180zM354 307 q0 -64 49 -113.5t115 -46.5q69 0 119.5 30.5t50.5 86.5v426q0 61 -49 96t-121 37q-66 0 -115 -46.5t-49 -112.5v-357zM819 96q0 -29 23 -42.5t45.5 -1.5t21.5 46v625q0 91 -73 199z" />
<glyph unicode="A" horiz-adv-x="1048" d="M-16 0l344 1350q14 47 48.5 73.5t72.5 26.5q35 0 69.5 -27.5t46.5 -70.5l350 -1352h-145l-131 504h-385q-104 -400 -129 -504h-141zM285 635h321l-153 670zM449 1323l4 -18q0 6 2 10z" />
<glyph unicode="B" horiz-adv-x="948" d="M0 117v1200q0 53 31 85t84 32h293q133 -2 230 -96.5t97 -233.5v-74q0 -81 -44.5 -159.5t-135.5 -98.5q97 -17 150 -100t53 -172v-174q0 -129 -99 -227.5t-225 -100.5h-319q-54 0 -84.5 31.5t-30.5 87.5zM115 1300h16v17zM119 131q12 -4 12 -14v14h-12zM131 131h303 q75 3 133 60.5t58 134.5v174q0 83 -57.5 141.5t-137.5 58.5h-299v-569zM131 836h299q74 0 123 57t49 137v74q0 81 -57 138.5t-137 57.5h-277v-464z" />
<glyph unicode="C" horiz-adv-x="937" d="M0 328v782q0 109 54.5 188t137.5 115.5t183 36.5q70 0 136.5 -24.5t120.5 -70t87.5 -119t34.5 -163.5h-138q0 114 -71 179t-168 65q-100 0 -172 -55.5t-72 -151.5v-782q1 -96 73 -151.5t171 -55.5q97 0 168 65t71 179h138q-1 -90 -34 -163.5t-87 -119t-120 -70 t-136 -24.5q-100 0 -183.5 36.5t-138.5 115.5t-55 188z" />
<glyph unicode="D" horiz-adv-x="950" d="M0 117v1202q0 51 32.5 83t82.5 32h321q128 0 226 -98.5t98 -231.5v-776q0 -138 -97 -233t-227 -95h-321q-52 0 -83.5 34.5t-31.5 82.5zM115 1300h16v19zM131 1300l4 -1167h301q77 0 134 58t57 137v774q0 79 -57 138.5t-134 59.5h-305z" />
<glyph unicode="E" horiz-adv-x="841" d="M0 332v985q0 49 36.5 83t82.5 34h510v-134l-496 -4v-495h473v-133h-473v-336q0 -79 58 -139t137 -60h301v-133h-301q-133 0 -230.5 99t-97.5 233z" />
<glyph unicode="F" horiz-adv-x="811" d="M2 0v1317q0 49 36.5 83t82.5 34h508v-134l-494 -4v-493h461v-133h-461v-670h-133z" />
<glyph unicode="G" horiz-adv-x="948" d="M0 330v784q0 108 55 186.5t138.5 115t183.5 36.5q71 0 137.5 -24.5t120 -69.5t86 -118t33.5 -163h-136q0 114 -71.5 178t-169.5 64q-101 0 -173.5 -54.5t-72.5 -150.5v-784q1 -66 38 -114.5t92.5 -71.5t119.5 -23q99 0 171 54t73 147v337h-242v132h258q51 0 84 -31 t33 -82v-356q0 -80 -32 -145t-86 -105.5t-120.5 -62t-138.5 -21.5q-100 0 -184.5 37t-140.5 116.5t-56 188.5z" />
<glyph unicode="H" horiz-adv-x="890" d="M0 0v1434h133v-660h438v660h134v-1434h-134v643h-438v-643h-133z" />
<glyph unicode="I" horiz-adv-x="362" d="M20 0v1434h136v-1434h-136z" />
<glyph unicode="J" horiz-adv-x="940" d="M-6 369h135q0 -119 73 -186.5t173 -67.5q98 0 169.5 57.5t71.5 157.5l-4 970h-237v134h258q50 0 84.5 -34t34.5 -81v-989q0 -83 -33 -152t-87.5 -112t-121.5 -66t-139 -23q-74 0 -141 25.5t-120 73t-84.5 123.5t-31.5 170z" />
<glyph unicode="K" horiz-adv-x="935" d="M0 0v1434h131v-637h115q88 0 158 52t96 142q18 71 60.5 222t60.5 221h143q-6 -23 -20.5 -76t-27 -97.5t-22.5 -78.5q-23 -76 -61 -226q-10 -36 -27.5 -70t-45 -68t-68 -57t-89.5 -28q94 -17 151 -83t79 -150v2q18 -64 50.5 -193.5t41.5 -165.5q34 -138 35 -143h-137 q-10 39 -32.5 124.5t-31.5 119.5v-2q-19 64 -59 229v-2q-27 89 -97.5 142t-156.5 53h-115v-664h-131z" />
<glyph unicode="L" horiz-adv-x="788" d="M0 115v1319h135l2 -1301h510v-133h-522q-6 -1 -12 -1q-40 1 -74 31q-39 34 -39 85z" />
<glyph unicode="M" horiz-adv-x="1071" d="M0 0v1327q-1 49 28.5 77.5t66.5 30.5h6q35 1 67 -19q36 -22 45 -62q51 -154 121 -417t94 -347q43 130 118 391.5t113 378.5q14 42 49 64q31 19 62 19h8q35 -3 63.5 -32.5t30.5 -79.5v-1331h-131v8h-2v1024l15 187l-234 -707q-11 -30 -35.5 -48t-54.5 -18q-25 0 -50 16 t-38 44l-225 727l14 -201v-1032h-131z" />
<glyph unicode="N" horiz-adv-x="942" d="M0 0v1335q-1 47 28 76t70 29q33 0 60.5 -19t34.5 -53l-3 4l469 -1235l-30 191l-11 1106h134v-1334q0 -47 -27.5 -73.5t-65.5 -26.5q-27 0 -52.5 17.5t-37.5 45.5q-68 168 -145.5 369.5t-179 471.5t-140.5 374l27 -211v-1067h-131z" />
<glyph unicode="O" horiz-adv-x="944" d="M0 326v784q0 107 55.5 185t139.5 114.5t182 36.5q97 0 181 -36.5t140 -114.5t56 -185v-784q0 -81 -32 -147t-86 -107t-120.5 -62.5t-138.5 -21.5q-98 0 -182 36.5t-139.5 115t-55.5 186.5zM131 326q0 -96 72.5 -150.5t173.5 -54.5q99 0 171.5 54.5t72.5 150.5v784 q0 95 -72.5 149t-171.5 54q-100 0 -173 -54t-73 -149v-784z" />
<glyph unicode="P" horiz-adv-x="880" d="M0 0v1317q0 50 34.5 83.5t80.5 33.5h295q131 0 226 -99t95 -231v-211q0 -130 -95 -229t-226 -99h-279v-565h-131zM131 698h279q77 0 132.5 58t55.5 137v211q0 80 -56 138t-132 58l-279 -4v-598z" />
<glyph unicode="Q" horiz-adv-x="942" d="M0 328v782q0 81 31.5 146t85 106t120 62.5t140.5 21.5q57 0 110.5 -13.5t101.5 -41t84.5 -66.5t57.5 -94.5t21 -120.5v-782q0 -111 -56 -189q12 -11 70 -69l-100 -99l-48 56q-2 3 -10 10t-14 12q-109 -61 -217 -61q-98 0 -182 37t-139.5 116t-55.5 187zM131 324 q1 -94 73.5 -148.5t170.5 -54.5q59 0 119 24q-18 20 -68 64l96 98l72 -69q24 46 24 90v782q0 95 -70.5 149t-168.5 54q-100 0 -173.5 -54t-74.5 -149v-786z" />
<glyph unicode="R" horiz-adv-x="905" d="M0 0v1317q0 53 32.5 86t84.5 33h286q141 0 234.5 -93.5t93.5 -234.5v-219q0 -51 -28.5 -108.5t-81 -102.5t-111.5 -53q96 -13 161.5 -99t65.5 -170v-356h-133v356q0 82 -77 141.5t-162 59.5h-234v-557h-131zM121 1303h10v8q-4 -8 -10 -8zM131 690h234q84 0 158.5 59 t74.5 140v219q0 80 -56.5 137.5t-138.5 57.5h-272v-613z" />
<glyph unicode="S" horiz-adv-x="905" d="M0 358h131q0 -112 69 -174.5t165 -62.5t166.5 54t70.5 147v151q0 41 -15 73t-36 51t-57 33.5t-66 21.5t-74 14q-48 10 -75 16t-70 19.5t-67.5 28t-55 39.5t-46.5 55t-28 74t-12 97v121q0 80 31 145t83 105.5t117.5 62t137.5 21.5q55 0 107.5 -15t99.5 -45.5t82 -74 t56 -104.5t21 -132h-133q0 111 -69.5 174.5t-163.5 63.5q-97 0 -167.5 -54t-70.5 -147v-121q0 -40 16 -71.5t38 -51t60 -35.5t66 -23.5t72 -16.5q43 -9 72 -15.5t69 -20t67 -29t56.5 -40t47 -54.5t29 -72t11.5 -93v-151q0 -81 -32 -146.5t-85 -106t-118 -62t-135 -21.5 q-151 0 -258.5 98.5t-106.5 273.5z" />
<glyph unicode="T" horiz-adv-x="1007" d="M-14 1300v134h813v-134h-344v-1300h-133v1300h-336z" />
<glyph unicode="U" horiz-adv-x="944" d="M0 322v1112h131q0 -995 -2 -1112q6 -91 81 -148t169 -57q99 0 170.5 54.5t71.5 150.5v1112h133v-1112q0 -81 -32 -147t-86 -107t-120.5 -62.5t-138.5 -21.5q-98 0 -182 36.5t-139.5 115t-55.5 186.5z" />
<glyph unicode="V" horiz-adv-x="1038" d="M-31 1434h142l305 -1227l16 -137l17 131q32 121 157 641t150 592h143q-67 -258 -352 -1354q-14 -45 -46.5 -70.5t-68.5 -25.5q-39 0 -71 25t-46 73q-330 1293 -346 1352z" />
<glyph unicode="W" horiz-adv-x="1288" d="M-14 1434h133q35 -168 90 -459q15 -78 90 -512q13 -98 27 -184l14 -154h8l8 154q7 52 18.5 157.5t18.5 155.5q36 266 49 352q7 34 36 53t65 19t64.5 -16.5t37.5 -45.5l90 -675l8 -154h9l12 147q29 167 96.5 560.5t104.5 601.5h139l-258 -1334q-10 -48 -39 -76t-64 -28 t-63 28.5t-35 77.5l-90 635l-6 168h-12l-9 -166q-11 -79 -28.5 -225.5t-24.5 -196.5q-3 -20 -13.5 -98.5t-15.5 -118.5q-7 -48 -35.5 -75t-64.5 -27q-34 0 -64.5 26.5t-41.5 73.5q-13 76 -70 361q-7 41 -16 88t-20 104t-17 90q-16 88 -39 203q-18 94 -52 275.5t-40 214.5z " />
<glyph unicode="X" horiz-adv-x="894" d="M-55 1434h147q6 -15 25.5 -56.5t27.5 -60.5q41 -90 115.5 -261.5t99.5 -226.5q47 102 139.5 314t127.5 291h149l-342 -727q76 -158 154 -328q116 -247 176 -379h-141l-263 590q-24 -54 -84 -195t-92 -211q-14 -29 -43.5 -92.5t-44.5 -91.5h-145q64 131 131 272 q151 318 207 441q-58 118 -344 721z" />
<glyph unicode="Y" horiz-adv-x="894" d="M-47 1434h143q127 -289 234 -566l35 -139l34 141q122 309 232 564h147l-346 -813v-621h-135v623q-41 100 -139 327q-128 295 -205 484z" />
<glyph unicode="Z" horiz-adv-x="845" d="M-8 158l567 1142h-532v134h579q73 0 97 -42q10 -18 10 -41q0 -29 -17 -65l-569 -1153h555v-133h-596q-68 0 -94 44q-13 22 -13 52q0 28 13 62z" />
<glyph unicode="[" horiz-adv-x="407" d="M0 -33v1477q0 33 14.5 48t51.5 15h280v-131h-217v-1343h217v-129h-280q-38 0 -52 14t-14 49z" />
<glyph unicode="\" horiz-adv-x="704" d="M-92 1458h139l500 -1544h-135q-11 25 -31 88q-1 3 -15 44t-20 63q-13 40 -61 191.5t-78 244.5q-296 902 -299 913z" />
<glyph unicode="]" horiz-adv-x="401" d="M-109 33h195v1343h-195v131h261q37 0 51 -14.5t14 -48.5v-1477q0 -35 -14 -49t-51 -14h-261v129z" />
<glyph unicode="^" horiz-adv-x="698" d="M-29 1253l234 170q47 38 88 0q42 -30 126 -92t103 -76l-80 -104l-190 147q-13 -11 -44.5 -33.5t-47.5 -35.5q-72 -55 -99 -78z" />
<glyph unicode="_" horiz-adv-x="1075" d="M-14 -27v133h897v-133h-897z" />
<glyph unicode="`" horiz-adv-x="811" d="M106 1554l140 84l168 -309l-140 -2z" />
<glyph unicode="a" d="M0 307v74q0 127 93.5 221t221.5 94q59 0 115 -27.5t76 -84.5l-4 92q0 76 -55 130t-132 54q-74 0 -153 -76l-76 113q48 43 109.5 69.5t119.5 26.5q129 0 223.5 -93t94.5 -224v-676h-115l-12 90q-28 -54 -82.5 -78t-108.5 -24q-129 0 -222 95t-93 224zM131 307 q0 -78 54 -133t130 -55q74 0 130.5 37t56.5 100v156q0 71 -53.5 112t-133.5 41q-77 0 -130.5 -53.5t-53.5 -130.5v-74z" />
<glyph unicode="b" horiz-adv-x="837" d="M0 0v1411h131v-520q25 50 78 75t106 27h8q123 0 217 -91q97 -94 97 -218v-387q0 -124 -97 -217.5t-225 -93.5q-141 0 -186 104l-16 -90h-113zM131 274q0 -65 53.5 -111t130.5 -46q78 0 134.5 54t56.5 126v387q0 74 -56.5 125t-134.5 51q-87 0 -134.5 -46t-49.5 -122v-418 z" />
<glyph unicode="c" d="M0 307v371q0 133 94 225t225 92q127 0 221 -103.5t95 -252.5h-131q0 95 -54 159t-131 64t-132.5 -54t-55.5 -130v-371q0 -77 55 -131.5t133 -54.5q76 0 130.5 66.5t54.5 158.5h131q-2 -148 -93 -252t-223 -104q-130 0 -224.5 94t-94.5 223z" />
<glyph unicode="d" horiz-adv-x="835" d="M0 297v387q0 124 97 218q94 91 217 91h8q53 -2 106 -27t78 -75v520h131v-1411h-113l-16 90q-45 -104 -186 -104q-128 0 -225 93.5t-97 217.5zM131 297q0 -72 56.5 -126t134.5 -54q77 0 130.5 46t53.5 111v418q-2 76 -49.5 122t-134.5 46q-78 0 -134.5 -51t-56.5 -125 v-387z" />
<glyph unicode="e" horiz-adv-x="815" d="M-14 307v369q0 128 92 223.5t225 95.5q129 0 222 -92.5t93 -224.5q0 -133 -92 -217t-223 -84h-186v-70q0 -76 54.5 -130t131.5 -54q47 0 96.5 24t83.5 72l109 -78q-55 -79 -132.5 -114t-156.5 -35q-131 0 -224 91t-93 224zM117 489h186q76 0 130 55.5t54 133.5 q0 76 -53.5 130t-130.5 54q-78 0 -132 -55t-54 -133v-185z" />
<glyph unicode="f" horiz-adv-x="483" d="M0 0v1094q0 137 108 229t257 92v-129q-96 0 -166 -56.5t-70 -135.5v-336h211v-129h-211v-629h-129z" />
<glyph unicode="g" horiz-adv-x="835" d="M0 299v387q0 121 98 215t224 94q138 0 190 -112l18 102h109v-1089q0 -133 -95.5 -224.5t-226.5 -91.5q-55 0 -124 26t-119 70l76 105q38 -32 84.5 -50t82.5 -18q78 0 134.5 54t56.5 129v204q-27 -55 -80 -80.5t-106 -25.5q-132 0 -227 84.5t-95 220.5zM131 299v-11 q0 -89 81 -134q52 -30 111 -30q26 0 54 6q90 20 120 90q11 27 11 59v428q0 63 -58.5 109t-127.5 48q-75 0 -133 -53t-58 -125v-387z" />
<glyph unicode="h" horiz-adv-x="833" d="M0 0v1403h131l2 -539q21 58 73 92.5t113 34.5q145 0 229.5 -92.5t84.5 -226.5l2 -672h-131v672q0 78 -54 133t-131 55q-78 0 -133 -55t-55 -133v-672h-131z" />
<glyph unicode="i" horiz-adv-x="346" d="M-6 1139q0 39 24.5 63.5t59.5 24.5q37 0 63.5 -24.5t26.5 -63.5q0 -36 -27 -61t-63 -25q-34 0 -59 25t-25 61zM14 0v983h129v-983h-129z" />
<glyph unicode="j" horiz-adv-x="382" d="M-186 -420l2 133q88 0 146 53.5t58 129.5v1089h132v-1089q0 -134 -97 -225t-241 -91zM2 1135q0 39 24.5 63.5t59.5 24.5q38 0 64 -24.5t26 -63.5q0 -36 -26.5 -61t-63.5 -25q-34 0 -59 25t-25 61z" />
<glyph unicode="k" horiz-adv-x="808" d="M0 0v1401h131v-846h33q67 0 118.5 27t75.5 82l150 321h139q-20 -46 -74 -158q-15 -32 -32 -71t-36 -83t-28 -63q-16 -38 -57 -76.5t-90 -46.5q51 -5 90.5 -40.5t56.5 -73.5l168 -373h-139l-148 319q-24 53 -76 80t-118 27h-33v-426h-131z" />
<glyph unicode="l" horiz-adv-x="460" d="M0 324v1079h129v-1079q0 -80 63 -137.5t154 -57.5v-129q-148 0 -247 92t-99 232z" />
<glyph unicode="m" horiz-adv-x="1378" d="M0 0v983h106l19 -98q26 56 81 84t113 28q82 0 151 -42t99 -134q21 63 63.5 104t89 56.5t101.5 15.5q125 0 218.5 -97t93.5 -222v-678h-129v678q0 75 -55.5 130.5t-131.5 55.5t-131 -55.5t-55 -130.5v-678h-129v678q0 75 -55.5 130.5t-133.5 55.5q-76 0 -131 -55.5 t-55 -130.5v-678h-129z" />
<glyph unicode="n" d="M0 0v985h111l16 -98q27 54 81.5 82t108.5 28q128 0 223 -96.5t95 -222.5v-678h-131v678q0 75 -55.5 130.5t-133.5 55.5q-76 0 -130 -55t-54 -131v-678h-131z" />
<glyph unicode="o" horiz-adv-x="823" d="M-23 307v373q0 78 28 140t74.5 99.5t104 57.5t119.5 20q85 0 157.5 -33.5t120.5 -107t48 -176.5v-373q0 -77 -28 -139t-74.5 -100t-104 -58t-119.5 -20q-63 0 -120.5 20t-104 58t-74 100t-27.5 139zM109 307q0 -87 58 -135.5t136 -48.5q80 0 137.5 48.5t57.5 135.5v373 q0 86 -58 136t-137 50q-78 0 -136 -50t-58 -136v-373z" />
<glyph unicode="p" horiz-adv-x="833" d="M0 -422v1411h113l16 -90q45 105 186 105q128 0 225 -94t97 -218v-387q0 -124 -97 -218q-94 -91 -217 -91h-8q-53 2 -106 27t-78 75v-520h-131zM131 297q2 -76 49.5 -122t134.5 -46q78 0 134.5 51t56.5 125v387q0 72 -56.5 126t-134.5 54q-77 0 -130.5 -46t-53.5 -111 v-418z" />
<glyph unicode="q" horiz-adv-x="815" d="M0 305v387q0 124 97 218t225 94q141 0 186 -105l16 90h113v-1411h-131v520q-25 -50 -78 -75t-106 -27h-8q-123 0 -217 91q-97 94 -97 218zM131 305q0 -74 56.5 -125t134.5 -51q87 0 134.5 46t49.5 122v418q0 65 -53.5 111t-130.5 46q-78 0 -134.5 -54t-56.5 -126v-387z " />
<glyph unicode="r" horiz-adv-x="563" d="M0 0v979h117l14 -94q25 56 72 81t96 25q73 0 154 -45l-45 -117q-42 25 -90 31q-13 2 -27 1q-33 0 -61 -10q-40 -14 -67.5 -49t-31.5 -85v-717h-131z" />
<glyph unicode="s" horiz-adv-x="759" d="M-27 170l113 59q34 -55 86.5 -83.5t110.5 -28.5q75 0 130.5 44t55.5 120q0 72 -52.5 111.5t-127.5 41.5q-135 3 -217 65t-82 194q0 139 93 221q94 83 222 83q79 0 153.5 -42t129.5 -124l-111 -73q-37 53 -82.5 81.5t-87.5 28.5q-86 0 -141 -61q-45 -42 -45 -120 q0 -61 45 -89q46 -28 125 -31q129 -3 219 -77.5t90 -211.5q0 -140 -94 -216t-225 -76q-87 0 -172 48.5t-136 135.5z" />
<glyph unicode="t" horiz-adv-x="497" d="M0 324v1079h129v-416h213v-131h-213v-532q0 -79 68.5 -137t162.5 -58v-129q-148 0 -254 92.5t-106 231.5z" />
<glyph unicode="u" horiz-adv-x="817" d="M0 305v678h131v-678q0 -77 52.5 -130.5t127.5 -53.5q76 0 129.5 53.5t53.5 130.5v678h129v-678q0 -130 -89 -222.5t-223 -92.5q-131 0 -221 93t-90 222z" />
<glyph unicode="v" horiz-adv-x="835" d="M8 983h139l228 -825l6 -82h10l4 84q146 538 226 823h137l-258 -901q-13 -46 -45 -70t-72 -24t-72.5 24.5t-42.5 71.5v-2q-26 90 -119.5 411t-140.5 490z" />
<glyph unicode="w" horiz-adv-x="1069" d="M8 985h135l121 -737l8 -135h9l14 133q2 7 5 20t5 19q42 146 78 260q12 34 37 52.5t57 18.5q30 0 56.5 -20t39.5 -55q7 -26 23.5 -80t24.5 -80q14 -65 34 -135l21 -133h8l4 133q77 497 123 739h137q-11 -63 -88 -471q-50 -251 -80 -426q-9 -42 -37.5 -66t-64.5 -24 q-34 0 -63.5 21.5t-39.5 58.5q-45 203 -79 317l-13 121h-12l-10 -121q-22 -78 -39 -149q-38 -135 -47 -164q-12 -37 -41.5 -60.5t-61.5 -23.5q-35 0 -61.5 23t-38.5 67q-11 67 -36 196t-34 181q-43 221 -94 520z" />
<glyph unicode="x" horiz-adv-x="741" d="M-33 0l291 494q-99 168 -283 485h152l205 -373q38 65 108.5 192.5t100.5 180.5h151l-284 -485q16 -27 127.5 -214.5t164.5 -279.5h-153l-213 387q-33 -59 -106 -193t-107 -194h-154z" />
<glyph unicode="y" d="M0 301v682h131v-682q0 -74 57 -127q56 -51 128 -51h6q76 0 128 39t52 108v713h131v-1087q-1 -132 -94 -224t-220 -92q-56 0 -127 30t-126 75l86 100q89 -72 167 -72q75 0 129 54t54 129v200q-25 -56 -77 -80t-103 -24q-128 0 -225 91t-97 218z" />
<glyph unicode="z" horiz-adv-x="817" d="M-1 46q-12 21 -12 45q0 29 17 63l490 706q-79 0 -247.5 -3t-246.5 -3v131h535q49 0 77.5 -25.5t28.5 -66.5q0 -35 -25 -74l-487 -696q78 0 239 3t240 3v-129h-514q-68 0 -95 46z" />
<glyph unicode="{" horiz-adv-x="524" d="M-39 637v125q67 0 103.5 41.5t41.5 99.5q11 108 42 217.5t96.5 223.5t152.5 176l68 -103q-100 -84 -156 -232t-71 -292q-14 -135 -78 -199q64 -59 78 -188q11 -90 35.5 -180.5t73.5 -186.5t112 -147l-60 -119q-85 67 -150.5 182.5t-98.5 226t-44 212.5q-5 61 -41 102 t-104 41z" />
<glyph unicode="|" horiz-adv-x="362" d="M23 -211v1755h129v-1755h-129z" />
<glyph unicode="}" horiz-adv-x="542" d="M-102 -18q72 55 122.5 149t73 185t31.5 190q10 123 84 194q-74 71 -84 193q-11 90 -35 179t-74.5 185.5t-117.5 151.5l67 113q122 -94 197.5 -273.5t93.5 -345.5q3 -58 38 -99.5t103 -41.5v-125q-68 0 -103 -41t-38 -102q-11 -78 -33 -160t-56 -170t-86 -164.5 t-114 -122.5z" />
<glyph unicode="~" horiz-adv-x="753" d="M-6 635l115 59q44 -65 69 -65q23 0 49 26q67 58 129 58q102 0 195 -138l-105 -77q-61 84 -90 84q-16 0 -37 -21q-65 -65 -139 -65q-94 0 -186 139z" />
<glyph unicode="&#xa1;" horiz-adv-x="376" d="M4 1309q0 37 27 64.5t65 27.5q32 0 56 -27.5t24 -64.5q0 -38 -23 -61t-57 -23q-40 0 -66 22.5t-26 61.5zM29 -14h131v1149h-131v-1149z" />
<glyph unicode="&#xa2;" horiz-adv-x="839" d="M4 498v381q0 137 97.5 230t230.5 93q51 0 84 -8q18 51 35 105.5t18 56.5l16 49l138 -19q-30 -106 -86 -253q120 -86 120 -291h-133q-1 96 -57 161.5t-135 65.5q-80 0 -137.5 -56t-57.5 -134v-381q0 -78 57.5 -133.5t137.5 -55.5t136 66.5t56 165.5h133 q0 -152 -96.5 -258.5t-228.5 -106.5q-52 0 -86 10q-1 -3 -9 -23.5t-12 -31.5q-5 -14 -21 -65t-24 -72l-129 31l74 223q-54 47 -87 113.5t-34 136.5z" />
<glyph unicode="&#xa3;" horiz-adv-x="946" d="M-57 0l51 129h96v418h-102v131h102v409q0 133 92.5 224.5t227.5 91.5q140 0 231.5 -112t85.5 -267h-127q3 101 -51.5 174.5t-138.5 73.5q-78 0 -134.5 -54.5t-56.5 -130.5v-409h262v-131h-262v-418h486v-129h-762z" />
<glyph unicode="&#xa4;" horiz-adv-x="956" d="M-59 512v131h75v88h-75v129h75v211q0 104 54.5 179.5t136 110t176.5 34.5q69 0 133 -23t116.5 -66.5t84 -114t31.5 -157.5h-132q0 109 -69 169.5t-164 60.5t-165.5 -51t-70.5 -142v-211h215v-129h-215v-88h215v-131h-215v-197q1 -93 70 -144.5t164 -51.5t164 61.5 t69 171.5h134q0 -87 -31.5 -158t-84 -115t-116.5 -67.5t-133 -23.5q-96 0 -177 34.5t-135.5 110.5t-54.5 182v197h-75z" />
<glyph unicode="&#xa5;" horiz-adv-x="950" d="M-49 1403l139 4q179 -427 268 -666q74 207 271 664l139 -4q-143 -327 -313 -733h110v-129h-143v-70h143v-131h-143v-338h-133v338h-133v131h133v70h-133v129h102q-95 228 -154 366q-46 111 -153 369z" />
<glyph unicode="&#xa7;" horiz-adv-x="835" d="M-29 166l113 70q39 -56 94.5 -87.5t110.5 -31.5q77 0 134 46.5t58 125.5q0 75 -54.5 116.5t-131.5 43.5q-138 3 -224.5 77t-86.5 189q0 64 39 147q-16 51 -19 99q0 142 98.5 228.5t229.5 86.5q78 0 154 -45.5t135 -136.5l-113 -60q-37 52 -86 81.5t-92 29.5 q-83 0 -148 -62q-44 -47 -47 -122q0 -123 180 -130q132 -3 223 -79t91 -215q0 -89 -35 -152q15 -47 18 -96q0 -99 -47.5 -169.5t-119 -102t-156.5 -31.5q-87 0 -174 47.5t-144 132.5zM109 711q0 -58 52 -92t134 -37q112 -6 207 -74q2 10 2 27q0 69 -55.5 113.5t-135.5 49.5 q-115 3 -198 58q-6 -21 -6 -45z" />
<glyph unicode="&#xa8;" horiz-adv-x="813" d="M74 1421q0 38 23.5 62t60.5 24q34 0 58 -26.5t24 -59.5q0 -36 -23 -58t-59 -22q-37 0 -60.5 22t-23.5 58zM322 1421q0 38 24 62t62 24q34 0 56.5 -26t22.5 -60q0 -37 -21.5 -58.5t-57.5 -21.5q-39 0 -62.5 22t-23.5 58z" />
<glyph unicode="&#xa9;" horiz-adv-x="1267" d="M2 528v340q0 127 43.5 229.5t117 165.5t164 96.5t189.5 33.5t190 -33.5t164.5 -96.5t117.5 -165.5t44 -229.5v-340q0 -102 -29 -189.5t-78.5 -148.5t-115.5 -104t-140.5 -63.5t-152.5 -20.5t-152.5 20.5t-140 63.5t-115 104.5t-78 148.5t-28.5 189zM135 528 q1 -95 34 -172.5t87.5 -125.5t121.5 -73.5t140 -25.5t140.5 25.5t122 73.5t87.5 125.5t33 172.5v340q0 93 -33 169t-87.5 123t-122 72t-140.5 25t-140 -25t-121.5 -72t-87.5 -123t-34 -169v-340zM229 537v317q0 128 84.5 213.5t204.5 85.5t206.5 -97t86.5 -235h-125 q0 88 -48 146.5t-120 58.5q-70 0 -116 -49.5t-46 -122.5v-317q0 -74 45.5 -125.5t116.5 -51.5t119.5 61.5t48.5 147.5h125q0 -138 -85.5 -234.5t-207.5 -96.5q-121 0 -205 85.5t-84 213.5z" />
<glyph unicode="&#xaa;" horiz-adv-x="800" d="M-29 713v69q0 127 94.5 222.5t219.5 95.5q57 0 111.5 -26.5t78.5 -76.5v80q0 77 -56 132t-134 55q-67 0 -154 -78l-72 114q109 95 226 95q129 0 224 -92.5t95 -225.5v-676h-102l-27 95q-28 -46 -82.5 -74.5t-107.5 -30.5q-125 0 -219.5 96t-94.5 226zM10 154v133h611 v-133h-611zM100 713q0 -78 55 -133.5t130 -55.5q77 2 132.5 38t55.5 100v155q0 69 -54 109.5t-134 42.5q-75 0 -130 -55.5t-55 -131.5v-69z" />
<glyph unicode="&#xab;" horiz-adv-x="745" d="M-33 684q1 13 23 41q8 11 39 54t47 65q50 67 57 78q10 13 32.5 42.5t33.5 43.5q30 40 45 61l108 -76l-235 -313q2 -3 9 -11.5t9 -11.5q15 -21 31 -45q28 -38 94.5 -127t89.5 -120l-104 -89l-254 355q-3 1 -8 12v-2q-18 30 -17 43zM204 682.5q1 16.5 25 44.5v-2 q15 22 47 63.5t46 61.5q48 67 51 72q48 61 108 147l111 -76l-236 -313q8 -10 25 -35q1 -2 11.5 -14t15.5 -19q26 -35 91 -123.5t91 -123.5l-105 -89l-256 355q-2 1 -8 10q-18 25 -17 41.5z" />
<glyph unicode="&#xad;" d="M-12 537v131h616v-131h-616z" />
<glyph unicode="&#xae;" horiz-adv-x="1253" d="M-12 528v340q0 127 43.5 229.5t117 165.5t164 96.5t189.5 33.5t190 -33.5t164.5 -96.5t117.5 -165.5t44 -229.5v-340q0 -102 -29 -189.5t-78.5 -148.5t-115.5 -104t-140.5 -63.5t-152.5 -20.5t-152.5 20.5t-140 63.5t-115 104.5t-78 148.5t-28.5 189zM121 528 q0 -95 33 -172.5t87.5 -125.5t122 -73.5t140.5 -25.5q74 0 141.5 25.5t122 73.5t87 125t32.5 173v340q0 93 -32.5 169t-87 123t-122 72t-141.5 25q-73 0 -140.5 -25t-122 -72t-87.5 -123t-33 -169v-340zM256 297v717q0 39 26.5 68.5t67.5 29.5h189q96 0 166.5 -69.5 t70.5 -168.5v-61q0 -100 -86 -176q86 -76 86 -170v-170h-131v166q0 44 -42.5 76t-90.5 32h-129v-274h-127zM383 702h129q47 0 88 32t41 79v66q0 43 -29.5 72.5t-72.5 29.5h-156v-279z" />
<glyph unicode="&#xaf;" horiz-adv-x="856" d="M-14 1305v133h628v-133h-628z" />
<glyph unicode="&#xb0;" horiz-adv-x="964" d="M-16 1049q0 157 111.5 272t271.5 115q155 0 272 -116t117 -271q0 -105 -54 -194t-143.5 -140t-191.5 -51q-161 0 -272 112t-111 273zM113 1049q0 -107 74.5 -181.5t179.5 -74.5q107 0 181.5 74.5t74.5 181.5q0 106 -74.5 181t-181.5 75q-104 0 -179 -75t-75 -181z" />
<glyph unicode="&#xb4;" horiz-adv-x="608" d="M57 1313l172 284l150 -65l-180 -219h-142z" />
<glyph unicode="&#xb5;" horiz-adv-x="839" d="M-16 -8v1411h129q0 -119 2 -703q8 -70 62 -122t124 -52q79 0 136 54t57 129v692h131l-2 -1059h-131v125q-83 -70 -191 -70q-127 0 -186 64v-469h-131z" />
<glyph unicode="&#xb6;" horiz-adv-x="808" d="M-16 866v207q0 128 93 222t224 94h236q36 0 56.5 -21t20.5 -57v-1311h-129v551h-184q-131 0 -224 93.5t-93 221.5zM115 866q0 -76 54.5 -130t131.5 -54h184v573h-184q-77 0 -131.5 -53.5t-54.5 -128.5v-207z" />
<glyph unicode="&#xb7;" horiz-adv-x="612" d="M14 702q0 68 46 117t114 49q72 0 117 -48.5t45 -117.5q0 -72 -44.5 -115.5t-117.5 -43.5q-70 0 -115 44t-45 115z" />
<glyph unicode="&#xb8;" horiz-adv-x="888" d="M182 86l131 18q-3 -86 37 -145t101 -59q24 0 84 24l14 -147q-66 -15 -98 -15q-77 0 -144 41.5t-103 117.5t-22 165z" />
<glyph unicode="&#xbb;" horiz-adv-x="759" d="M-10 993l110 76q74 -105 117 -160q96 -129 135 -184v2q26 -31 27 -44t-19 -42q-6 -7 -54 -74t-75 -102q-73 -100 -135 -189l-104 89q52 73 133 178q19 25 50.5 69t49.5 68zM221 993l109 76q19 -26 104 -143q110 -142 150 -201q22 -28 23 -41t-19 -43h2q-7 -11 -28.5 -40 t-31.5 -44q-91 -122 -202 -281l-103 89q39 56 109 151q73 97 119 164z" />
<glyph unicode="&#xbf;" horiz-adv-x="817" d="M-12 313v117q0 96 48.5 169t131.5 116l-2 -2q96 65 96 166v266h129v-266q0 -90 -42 -162.5t-113 -116.5q-117 -64 -117 -172v-115q0 -78 57 -134t135 -56q77 0 133.5 66.5t59.5 164.5l133 -16q-9 -147 -103.5 -246.5t-222.5 -99.5q-132 0 -227.5 92.5t-95.5 228.5z M248 1346q0 36 24 60t56 24t56 -24t24 -60q0 -37 -24 -63t-56 -26t-56 26t-24 63z" />
<glyph unicode="&#xc0;" horiz-adv-x="1005" d="M-70 0l344 1350q14 47 48.5 73.5t72.5 26.5q35 0 70 -27.5t47 -70.5l350 -1352h-145l-131 504h-385q-104 -400 -129 -504h-142zM172 1743l139 84l168 -309l-139 -2zM231 635h322l-154 670zM395 1323l4 -18q0 6 2 10z" />
<glyph unicode="&#xc1;" horiz-adv-x="993" d="M-70 0h142q25 104 129 504h385l131 -504h145l-350 1352q-12 43 -47 70.5t-70 27.5q-38 0 -72.5 -26.5t-48.5 -73.5zM231 635l168 670l154 -670h-322zM330 1518l172 284l149 -65l-180 -219h-141zM395 1323l4 -18q0 6 2 10z" />
<glyph unicode="&#xc2;" horiz-adv-x="1005" d="M-70 0l344 1350q14 47 48.5 73.5t72.5 26.5q35 0 70 -27.5t47 -70.5l350 -1352h-145l-131 504h-385q-104 -400 -129 -504h-142zM150 1583l202 150q25 19 44.5 19t45.5 -19q18 -14 72 -54q81 -55 123 -94l-84 -96l-156 121q-13 -8 -40.5 -30.5t-41.5 -31.5 q-16 -14 -51.5 -40t-36.5 -27zM231 635h322l-154 670zM395 1323l4 -18q0 6 2 10z" />
<glyph unicode="&#xc3;" horiz-adv-x="1005" d="M-70 0l344 1350q14 47 48.5 73.5t72.5 26.5q35 0 70 -27.5t47 -70.5l350 -1352h-145l-131 504h-385q-104 -400 -129 -504h-142zM182 1614l92 65q9 -8 17 -16t15.5 -16t10.5 -11v2q7 -5 9 -6.5t6.5 -2t8.5 2.5t11 10q55 52 105 52q71 0 155 -115l-92 -70q-22 22 -43 50 q-8 12 -13 16t-13 2.5t-19 -12.5q-57 -54 -100 -54q-34 0 -74 27t-76 76zM231 635h322l-154 670zM395 1323l4 -18q0 6 2 10z" />
<glyph unicode="&#xc4;" horiz-adv-x="1005" d="M-70 0h142q25 104 129 504h385l131 -504h145l-350 1352q-12 43 -47 70.5t-70 27.5q-38 0 -72.5 -26.5t-48.5 -73.5zM188 1599q0 38 23.5 62.5t60.5 24.5q34 0 58 -27t24 -60q0 -36 -23 -57.5t-59 -21.5q-37 0 -60.5 21.5t-23.5 57.5zM231 635l168 670l154 -670h-322z M395 1323l4 -18q0 6 2 10zM436 1599q0 38 24 62.5t62 24.5q34 0 57 -26.5t23 -60.5q0 -36 -22 -57.5t-58 -21.5q-39 0 -62.5 21.5t-23.5 57.5z" />
<glyph unicode="&#xc5;" horiz-adv-x="1005" d="M-63 20l344 1350q14 47 48 73.5t72 26.5q35 0 70 -27.5t47 -70.5l350 -1352h-145l-131 504h-385q-104 -400 -129 -504h-141zM188 1577q0 87 59.5 149t147.5 62q86 0 149.5 -62.5t63.5 -148.5q0 -83 -63.5 -145t-149.5 -62q-88 0 -147.5 61t-59.5 146zM238 655h321 l-153 670zM317 1577q0 -32 23.5 -56t54.5 -24q35 0 58.5 23.5t23.5 56.5q0 35 -23.5 58.5t-58.5 23.5q-31 0 -54.5 -23.5t-23.5 -58.5zM401 1343l5 -18q0 6 2 10z" />
<glyph unicode="&#xc6;" horiz-adv-x="1492" d="M-33 10q95 384 154 604v-2q32 127 95 373t93 363q13 47 46 74.5t75 27.5q40 0 72 -27.5t45 -74.5l145 -627q-1 67 -7.5 287t-6.5 309q0 49 34.5 83t78.5 34h509v-134l-491 -4v-495h475v-133h-475q0 -103 2 -148v-92q0 -16 1 -48t1 -48q1 -95 59 -147t129 -52h299v-133 h-299q-125 0 -218.5 86t-102.5 229v-4q-14 45 -25.5 85.5t-17 60.5t-8.5 28v-2q-8 16 -8 19h-388q-117 -461 -133 -520zM266 635h322q-23 92 -49.5 195.5t-59.5 228t-51 194.5q-14 -46 -84 -320t-78 -298z" />
<glyph unicode="&#xc7;" horiz-adv-x="937" d="M0 328v782q0 109 54.5 188t137.5 115.5t183 36.5q70 0 136.5 -24.5t120.5 -70t87.5 -119t34.5 -163.5h-138q0 114 -71 179t-168 65q-100 0 -172 -55.5t-72 -151.5v-782q1 -96 73 -151.5t171 -55.5q97 0 168 65t71 179h138q-1 -90 -34 -163.5t-87 -119t-120 -70 t-136 -24.5q-100 0 -183.5 36.5t-138.5 115.5t-55 188zM303 66l131 18q-3 -87 36.5 -146t100.5 -59q21 0 84 25l15 -148q-61 -14 -99 -14q-77 0 -143.5 41.5t-102.5 117.5t-22 165z" />
<glyph unicode="&#xc8;" horiz-adv-x="815" d="M2 332v985q0 49 36.5 83t82.5 34h510v-134l-496 -4v-495h473v-133h-473v-336q0 -79 58 -139t137 -60h301v-133h-301q-133 0 -230.5 99t-97.5 233zM129 1729l139 83l168 -309l-139 -2z" />
<glyph unicode="&#xc9;" horiz-adv-x="815" d="M2 332q0 -134 97.5 -233t230.5 -99h301v133h-301q-79 0 -137 60t-58 139v336h473v133h-473v495l496 4v134h-510q-46 0 -82.5 -34t-36.5 -83v-985zM264 1501l172 285l150 -66l-180 -219h-142z" />
<glyph unicode="&#xca;" horiz-adv-x="800" d="M2 332v985q0 49 36.5 83t82.5 34h510v-134l-496 -4v-495h473v-133h-473v-336q0 -79 58 -139t137 -60h301v-133h-301q-133 0 -230.5 99t-97.5 233zM82 1599l203 150q25 19 44.5 19t45.5 -19q11 -9 71 -53q81 -55 123 -94l-84 -97l-155 121q-13 -8 -41 -30t-41 -31 q-12 -10 -29.5 -23.5t-35.5 -27t-23 -17.5z" />
<glyph unicode="&#xcb;" horiz-adv-x="796" d="M2 332q0 -134 97.5 -233t230.5 -99h301v133h-301q-79 0 -137 60t-58 139v336h473v133h-473v495l496 4v134h-510q-46 0 -82.5 -34t-36.5 -83v-985zM125 1612q0 38 23.5 62t60.5 24q34 0 58 -26.5t24 -59.5q0 -36 -23 -58t-59 -22q-37 0 -60.5 22t-23.5 58zM373 1612 q0 38 24 62t62 24q34 0 57 -26t23 -60q0 -36 -22 -58t-58 -22q-39 0 -62.5 22t-23.5 58z" />
<glyph unicode="&#xcc;" horiz-adv-x="309" d="M-154 1741l140 84l168 -309l-140 -3zM4 0v1434h135v-1434h-135z" />
<glyph unicode="&#xcd;" horiz-adv-x="296" d="M-27 1505l172 285l150 -66l-180 -219h-142zM-8 0h135v1434h-135v-1434z" />
<glyph unicode="&#xce;" horiz-adv-x="296" d="M-197 1599l203 150q25 19 44.5 19t45.5 -19q10 -8 37 -27.5t35 -25.5q81 -55 123 -94l-84 -97l-156 121q-13 -8 -41 -30t-41 -31q-12 -10 -29.5 -23.5t-35.5 -27t-23 -17.5zM-8 0v1434h135v-1434h-135z" />
<glyph unicode="&#xcf;" horiz-adv-x="296" d="M-154 1599q0 38 23.5 62.5t60.5 24.5q34 0 58 -27t24 -60q0 -36 -23 -57.5t-59 -21.5q-37 0 -60.5 21.5t-23.5 57.5zM-8 0h135v1434h-135v-1434zM94 1599q0 38 24 62.5t62 24.5q34 0 57 -26.5t23 -60.5q0 -36 -22 -57.5t-58 -21.5q-39 0 -62.5 21.5t-23.5 57.5z" />
<glyph unicode="&#xd0;" horiz-adv-x="952" d="M-68 649v133h412v-133h-412zM-2 117v1202q0 49 35.5 82t81.5 33h319q130 0 228 -98.5t98 -231.5v-776q0 -138 -97 -233t-229 -95h-319q-51 0 -84 35t-33 82zM115 1300h18v19zM133 1300l2 -1167h299q79 0 136 57.5t57 137.5v774q0 80 -57 139t-136 59h-301z" />
<glyph unicode="&#xd1;" horiz-adv-x="942" d="M0 0v1335q-1 47 28 76t70 29q33 0 60.5 -19t34.5 -53l-3 4l469 -1235l-30 191l-11 1106h134v-1334q0 -47 -27.5 -73.5t-65.5 -26.5q-27 0 -52.5 17.5t-37.5 45.5q-68 168 -145.5 369.5t-179 471.5t-140.5 374l27 -211v-1067h-131zM160 1622l98 74q14 -12 30 -30t17 -19v2 q7 -6 9 -7.5t7 -2t9 2.5t12 11q56 59 113 59q74 0 168 -131l-101 -78q-23 23 -45 56q-14 20 -21.5 22t-27.5 -16q-63 -60 -109 -60q-80 0 -159 117z" />
<glyph unicode="&#xd2;" horiz-adv-x="944" d="M0 326v784q0 107 55.5 185t139.5 114.5t182 36.5q97 0 181 -36.5t140 -114.5t56 -185v-784q0 -81 -32 -147t-86 -107t-120.5 -62.5t-138.5 -21.5q-98 0 -182 36.5t-139.5 115t-55.5 186.5zM131 326q0 -96 72.5 -150.5t173.5 -54.5q99 0 171.5 54.5t72.5 150.5v784 q0 95 -72.5 149t-171.5 54q-100 0 -173 -54t-73 -149v-784zM164 1733l139 84l168 -310l-139 -2z" />
<glyph unicode="&#xd3;" horiz-adv-x="944" d="M0 326q0 -108 55.5 -186.5t139.5 -115t182 -36.5q72 0 138.5 21.5t120.5 62.5t86 107t32 147v784q0 107 -56 185t-140 114.5t-181 36.5q-98 0 -182 -36.5t-139.5 -114.5t-55.5 -185v-784zM131 326v784q0 95 73 149t173 54q99 0 171.5 -54t72.5 -149v-784 q0 -96 -72.5 -150.5t-171.5 -54.5q-101 0 -173.5 54.5t-72.5 150.5zM303 1499l172 285l150 -66l-181 -219h-141z" />
<glyph unicode="&#xd4;" horiz-adv-x="944" d="M0 326v784q0 107 55.5 185t139.5 114.5t182 36.5q97 0 181 -36.5t140 -114.5t56 -185v-784q0 -81 -32 -147t-86 -107t-120.5 -62.5t-138.5 -21.5q-98 0 -182 36.5t-139.5 115t-55.5 186.5zM127 1602l203 149q25 19 44.5 19t45.5 -19q10 -8 37 -27.5t35 -25.5 q78 -52 122 -94l-84 -97l-155 121q-13 -8 -41 -30t-41 -31q-12 -10 -29.5 -23.5t-35.5 -27t-23 -17.5zM131 326q0 -96 72.5 -150.5t173.5 -54.5q99 0 171.5 54.5t72.5 150.5v784q0 95 -72.5 149t-171.5 54q-100 0 -173 -54t-73 -149v-784z" />
<glyph unicode="&#xd5;" horiz-adv-x="944" d="M0 326v784q0 107 55.5 185t139.5 114.5t182 36.5q97 0 181 -36.5t140 -114.5t56 -185v-784q0 -81 -32 -147t-86 -107t-120.5 -62.5t-138.5 -21.5q-98 0 -182 36.5t-139.5 115t-55.5 186.5zM131 326q0 -96 72.5 -150.5t173.5 -54.5q99 0 171.5 54.5t72.5 150.5v784 q0 95 -72.5 149t-171.5 54q-100 0 -173 -54t-73 -149v-784zM139 1634l99 74q14 -12 30 -30t17 -19v2q7 -6 9 -7.5t7 -2t9 2.5t12 11q56 59 112 59q74 0 168 -131l-100 -77q-25 25 -45 55q-14 20 -21.5 22t-27.5 -16q-62 -59 -109 -59q-38 0 -80.5 30t-79.5 86z" />
<glyph unicode="&#xd6;" horiz-adv-x="944" d="M0 326q0 -108 55.5 -186.5t139.5 -115t182 -36.5q72 0 138.5 21.5t120.5 62.5t86 107t32 147v784q0 107 -56 185t-140 114.5t-181 36.5q-98 0 -182 -36.5t-139.5 -114.5t-55.5 -185v-784zM131 326v784q0 95 73 149t173 54q99 0 171.5 -54t72.5 -149v-784 q0 -96 -72.5 -150.5t-171.5 -54.5q-101 0 -173.5 54.5t-72.5 150.5zM168 1612q0 38 23.5 62t60.5 24q34 0 58 -26.5t24 -59.5q0 -36 -23 -58t-59 -22q-37 0 -60.5 22t-23.5 58zM416 1612q0 38 24 62t62 24q34 0 57 -26t23 -60q0 -36 -22 -58t-58 -22q-39 0 -62.5 22 t-23.5 58z" />
<glyph unicode="&#xd8;" horiz-adv-x="944" d="M0 326v784q0 107 55.5 185t139.5 114.5t182 36.5q97 0 181 -36.5t140 -114.5t56 -185v-784q0 -81 -32 -147t-86 -107t-120.5 -62.5t-138.5 -21.5q-98 0 -182 36.5t-139.5 115t-55.5 186.5zM68 -78l495 1536h142l-502 -1536h-135zM131 326q0 -96 72.5 -150.5t173.5 -54.5 q99 0 171.5 54.5t72.5 150.5v784q0 95 -72.5 149t-171.5 54q-100 0 -173 -54t-73 -149v-784z" />
<glyph unicode="&#xd9;" horiz-adv-x="944" d="M0 322v1112h131q0 -995 -2 -1112q6 -91 81 -148t169 -57q99 0 170.5 54.5t71.5 150.5v1112h133v-1112q0 -81 -32 -147t-86 -107t-120.5 -62.5t-138.5 -21.5q-98 0 -182 36.5t-139.5 115t-55.5 186.5zM184 1737l140 84l168 -310l-140 -2z" />
<glyph unicode="&#xda;" horiz-adv-x="944" d="M0 322q0 -108 55.5 -186.5t139.5 -115t182 -36.5q72 0 138.5 21.5t120.5 62.5t86 107t32 147v1112h-133v-1112q0 -96 -71.5 -150.5t-170.5 -54.5q-94 0 -169 57t-81 148q2 117 2 1112h-131v-1112zM279 1501l172 285l149 -66l-180 -219h-141z" />
<glyph unicode="&#xdb;" horiz-adv-x="944" d="M0 322v1112h131q0 -995 -2 -1112q6 -91 81 -148t169 -57q99 0 170.5 54.5t71.5 150.5v1112h133v-1112q0 -81 -32 -147t-86 -107t-120.5 -62.5t-138.5 -21.5q-98 0 -182 36.5t-139.5 115t-55.5 186.5zM152 1604l202 149q25 19 44.5 19t45.5 -19q10 -8 37 -27.5t35 -25.5 q81 -55 123 -94l-84 -97l-156 121q-13 -8 -41 -30t-41 -31q-12 -10 -29.5 -23.5t-35.5 -27t-23 -17.5z" />
<glyph unicode="&#xdc;" horiz-adv-x="944" d="M0 322q0 -108 55.5 -186.5t139.5 -115t182 -36.5q72 0 138.5 21.5t120.5 62.5t86 107t32 147v1112h-133v-1112q0 -96 -71.5 -150.5t-170.5 -54.5q-94 0 -169 57t-81 148q2 117 2 1112h-131v-1112zM168 1604q0 38 23.5 62t60.5 24q34 0 58 -26.5t24 -59.5q0 -36 -23 -58 t-59 -22q-37 0 -60.5 22t-23.5 58zM416 1604q0 38 24 62t62 24q34 0 57 -26t23 -60q0 -36 -22 -58t-58 -22q-39 0 -62.5 22t-23.5 58z" />
<glyph unicode="&#xdd;" horiz-adv-x="899" d="M-43 1434q77 -189 205 -484q98 -227 139 -327v-623h135v621l346 813h-147q-110 -255 -232 -564l-34 -141l-35 139q-107 277 -234 566h-143zM301 1497l172 285l150 -66l-181 -219h-141z" />
<glyph unicode="&#xde;" horiz-adv-x="884" d="M2 2v1430h133v-265h240q138 0 234 -98t96 -233v-220q0 -132 -96 -229.5t-234 -97.5h-240v-285zM135 422h240q81 0 138.5 57t57.5 137v220q0 83 -57 140.5t-139 57.5h-240v-612z" />
<glyph unicode="&#xdf;" horiz-adv-x="792" d="M4 4v1088q0 135 92.5 220t233.5 83q135 -2 223 -91t88 -225v-92q0 -76 -31.5 -144.5t-85.5 -111.5q62 -44 96.5 -111t34.5 -143v-153q0 -139 -94.5 -234.5t-232.5 -95.5h-152v131h152q82 0 139 57.5t57 139.5v155q0 78 -57 133.5t-137 55.5h-160v131h158q79 0 131.5 54.5 t52.5 131.5v96q0 79 -52.5 132.5t-129.5 52.5q-85 0 -140 -45.5t-55 -124.5v-1090h-131z" />
<glyph unicode="&#xe0;" horiz-adv-x="829" d="M-2 307v74q0 127 93.5 221t221.5 94q59 0 115 -27.5t76 -84.5l-4 92q0 76 -55 130t-132 54q-74 0 -153 -76l-76 113q48 43 109.5 69.5t119.5 26.5q129 0 223.5 -93t94.5 -224v-676h-115l-12 90q-28 -54 -82.5 -78t-108.5 -24q-129 0 -222 95t-93 224zM127 1255l137 74 l164 -270l-137 -2zM129 307q0 -78 54 -133t130 -55q74 0 130.5 37t56.5 100v156q0 71 -53.5 112t-133.5 41q-77 0 -130.5 -53.5t-53.5 -130.5v-74z" />
<glyph unicode="&#xe1;" d="M0 307v74q0 127 93.5 221t221.5 94q59 0 115 -27.5t76 -84.5l-4 92q0 76 -55 130t-132 54q-74 0 -153 -76l-76 113q48 43 109.5 69.5t119.5 26.5q129 0 223.5 -93t94.5 -224v-676h-115l-12 90q-28 -54 -82.5 -78t-108.5 -24q-129 0 -222 95t-93 224zM131 307 q0 -78 54 -133t130 -55q74 0 130.5 37t56.5 100v156q0 71 -53.5 112t-133.5 41q-77 0 -130.5 -53.5t-53.5 -130.5v-74zM262 1061l152 254l129 -60l-156 -194h-125z" />
<glyph unicode="&#xe2;" horiz-adv-x="833" d="M2 307v74q0 127 93.5 221t221.5 94q59 0 115 -27.5t76 -84.5l-4 92q0 76 -55 130t-132 54q-74 0 -153 -76l-76 113q48 43 109.5 69.5t119.5 26.5q129 0 223.5 -93t94.5 -224v-676h-115l-12 90q-28 -54 -82.5 -78t-108.5 -24q-129 0 -222 95t-93 224zM104 1133l191 141 q23 19 42 19t44 -19q1 -1 68 -49q81 -57 116 -90l-80 -91l-147 115q-13 -9 -40.5 -30.5t-37.5 -28.5q-50 -40 -82 -64zM133 307q0 -78 54 -133t130 -55q74 0 130.5 37t56.5 100v156q0 71 -53.5 112t-133.5 41q-77 0 -130.5 -53.5t-53.5 -130.5v-74z" />
<glyph unicode="&#xe3;" d="M0 307v74q0 127 93.5 221t221.5 94q59 0 115 -27.5t76 -84.5l-4 92q0 76 -55 130t-132 54q-74 0 -153 -76l-76 113q48 43 109.5 69.5t119.5 26.5q129 0 223.5 -93t94.5 -224v-676h-115l-12 90q-28 -54 -82.5 -78t-108.5 -24q-129 0 -222 95t-93 224zM119 1171l90 68 q11 -10 24 -25t19 -20v2q8 -10 14 -9.5t19 13.5q53 53 102 53q70 0 154 -118l-92 -72q-11 11 -41 51q-12 17 -19.5 19t-26.5 -13q-55 -55 -98 -55q-74 0 -145 106zM131 307q0 -78 54 -133t130 -55q74 0 130.5 37t56.5 100v156q0 71 -53.5 112t-133.5 41q-77 0 -130.5 -53.5 t-53.5 -130.5v-74z" />
<glyph unicode="&#xe4;" d="M0 307v74q0 127 93.5 221t221.5 94q59 0 115 -27.5t76 -84.5l-4 92q0 76 -55 130t-132 54q-74 0 -153 -76l-76 113q48 43 109.5 69.5t119.5 26.5q129 0 223.5 -93t94.5 -224v-676h-115l-12 90q-28 -54 -82.5 -78t-108.5 -24q-129 0 -222 95t-93 224zM131 307 q0 -78 54 -133t130 -55q74 0 130.5 37t56.5 100v156q0 71 -53.5 112t-133.5 41q-77 0 -130.5 -53.5t-53.5 -130.5v-74zM133 1139q0 38 23.5 62t60.5 24q34 0 58 -26.5t24 -59.5q0 -36 -23 -58t-59 -22q-37 0 -60.5 22t-23.5 58zM381 1139q0 38 24 62t62 24q34 0 57 -26 t23 -60q0 -36 -22 -58t-58 -22q-39 0 -62.5 22t-23.5 58z" />
<glyph unicode="&#xe5;" d="M0 307v74q0 127 93.5 221t221.5 94q59 0 115 -27.5t76 -84.5l-4 92q0 76 -55 130t-132 54q-74 0 -153 -76l-76 113q48 43 109.5 69.5t119.5 26.5q129 0 223.5 -93t94.5 -224v-676h-115l-12 90q-28 -54 -82.5 -78t-108.5 -24q-129 0 -222 95t-93 224zM131 307 q0 -78 54 -133t130 -55q74 0 130.5 37t56.5 100v156q0 71 -53.5 112t-133.5 41q-77 0 -130.5 -53.5t-53.5 -130.5v-74zM135 1079q0 84 59 145.5t146 61.5q85 0 148 -62t63 -145t-63 -144t-148 -61q-87 0 -146 60.5t-59 144.5zM264 1079q0 -33 22.5 -56.5t53.5 -23.5 q34 0 58 23t24 57t-24 57t-58 23q-31 0 -53.5 -23.5t-22.5 -56.5z" />
<glyph unicode="&#xe6;" horiz-adv-x="1355" d="M2 307v74q0 127 93.5 221t221.5 94q127 0 187 -67v47q0 76 -55.5 130t-131.5 54q-64 0 -153 -76l-78 113q111 96 231 96q49 0 97 -17t92.5 -61t60.5 -108q23 91 95 139.5t157 48.5q128 0 222 -93t94 -224q0 -134 -94 -226t-222 -92h-186v-61q5 -72 59.5 -124t126.5 -52 q47 0 96.5 24t83.5 72l109 -76q-103 -151 -289 -151q-57 0 -109 28.5t-77 79.5l-19 -102h-90l-20 100q-25 -53 -81 -81.5t-106 -30.5q-128 0 -221.5 95.5t-93.5 225.5zM131 307q0 -78 54.5 -133t131.5 -55q75 2 130 38.5t55 98.5v156q0 71 -53 111t-132 42q-77 0 -131.5 -54 t-54.5 -130v-74zM633 489h186q77 0 132 55.5t55 133.5q0 76 -55 130t-132 54q-74 0 -127.5 -53t-58.5 -129v-191z" />
<glyph unicode="&#xe7;" d="M0 307v371q0 133 94 225t225 92q127 0 221 -103.5t95 -252.5h-131q0 95 -54 159t-131 64t-132.5 -54t-55.5 -130v-371q0 -77 55 -131.5t133 -54.5q76 0 130.5 66.5t54.5 158.5h131q-1 -124 -70 -220t-172 -124q18 -32 59 -47.5t83 -1.5l59 -115q-81 -31 -123 -31 q-83 0 -145.5 51t-69.5 138q-111 22 -183.5 109t-72.5 202z" />
<glyph unicode="&#xe8;" horiz-adv-x="792" d="M0 307v369q0 128 92 223.5t225 95.5q130 0 223 -93t93 -224q0 -133 -92.5 -217t-223.5 -84h-186v-70q0 -76 54.5 -130t131.5 -54q47 0 97 24t84 72l108 -78q-55 -79 -132.5 -114t-156.5 -35q-131 0 -224 91t-93 224zM113 1255l125 76l151 -278l-125 -2zM131 489h186 q76 0 130.5 55.5t54.5 133.5q0 76 -54 130t-131 54q-78 0 -132 -55t-54 -133v-185z" />
<glyph unicode="&#xe9;" horiz-adv-x="774" d="M-16 307v369q0 128 92 223.5t225 95.5q129 0 222 -92.5t93 -224.5q0 -133 -92 -217t-223 -84h-186v-70q0 -76 54.5 -130t131.5 -54q47 0 96.5 24t83.5 72l109 -78q-55 -79 -132.5 -114t-156.5 -35q-131 0 -224 91t-93 224zM115 489h186q76 0 130 55.5t54 133.5 q0 76 -53.5 130t-130.5 54q-78 0 -132 -55t-54 -133v-185zM219 1053l154 254l133 -60l-162 -194h-125z" />
<glyph unicode="&#xea;" horiz-adv-x="792" d="M2 307v369q0 128 92 223.5t225 95.5q130 0 223 -93t93 -224q0 -133 -92.5 -217t-223.5 -84h-186v-70q0 -76 54.5 -130t131.5 -54q47 0 97 24t84 72l108 -78q-55 -79 -132.5 -114t-156.5 -35q-131 0 -224 91t-93 224zM115 1120l178 133q22 15 38.5 15t39.5 -15 q55 -41 63 -47q77 -52 109 -84l-74 -84l-137 107q-13 -8 -38 -28t-34 -27q-53 -38 -78 -60zM133 489h186q76 0 130.5 55.5t54.5 133.5q0 76 -54 130t-131 54q-78 0 -132 -55t-54 -133v-185z" />
<glyph unicode="&#xeb;" horiz-adv-x="800" d="M2 307v369q0 128 92 223.5t225 95.5q130 0 223 -93t93 -224q0 -133 -92.5 -217t-223.5 -84h-186v-70q0 -76 54.5 -130t131.5 -54q47 0 97 24t84 72l108 -78q-55 -79 -132.5 -114t-156.5 -35q-131 0 -224 91t-93 224zM133 489h186q76 0 130.5 55.5t54.5 133.5 q0 76 -54 130t-131 54q-78 0 -132 -55t-54 -133v-185zM135 1128q0 38 23.5 62t60.5 24q34 0 58 -26.5t24 -59.5q0 -36 -23 -57.5t-59 -21.5q-37 0 -60.5 21.5t-23.5 57.5zM383 1128q0 38 24 62t62 24q34 0 57 -26t23 -60q0 -36 -22 -57.5t-58 -21.5q-39 0 -62.5 21.5 t-23.5 57.5z" />
<glyph unicode="&#xec;" horiz-adv-x="315" d="M-121 1282l129 80l152 -295l-127 -2zM25 0v985h131v-985h-131z" />
<glyph unicode="&#xed;" horiz-adv-x="307" d="M23 0h131v985h-131v-985zM29 1069l149 258l133 -59l-159 -199h-123z" />
<glyph unicode="&#xee;" horiz-adv-x="311" d="M-164 1141l203 149q25 19 44.5 19t45.5 -19q10 -8 37 -27.5t35 -25.5q81 -55 123 -94l-84 -96l-156 120q-13 -8 -41 -30t-41 -31q-12 -10 -29.5 -23.5t-35.5 -27t-23 -17.5zM23 0v985h129v-985h-129z" />
<glyph unicode="&#xef;" horiz-adv-x="311" d="M-102 1194q0 38 23.5 62t60.5 24q34 0 57.5 -26.5t23.5 -59.5q0 -36 -22.5 -58t-58.5 -22q-37 0 -60.5 22t-23.5 58zM23 0h129v985h-129v-985zM145 1194q0 38 24 62t62 24q34 0 57 -26t23 -60q0 -36 -22 -58t-58 -22q-39 0 -62.5 22t-23.5 58z" />
<glyph unicode="&#xf0;" horiz-adv-x="919" d="M-8 815v264q0 79 30.5 142.5t82.5 103t115.5 60t133.5 20.5q55 0 107 -12.5t98.5 -39.5t81.5 -64.5t55.5 -91.5t20.5 -118v-772q0 -80 -30 -143t-81.5 -101t-114.5 -57.5t-133 -19.5q-87 0 -161 27.5t-146 103.5l103 86q81 -86 204 -86q94 0 162 49.5t68 140.5v320 q-14 -51 -56.5 -82.5t-85.5 -41t-92 -9.5q-73 0 -137 19.5t-115 57.5t-80.5 101t-29.5 143zM119 815q0 -91 68 -140.5t167 -49.5q96 0 165 51t69 145v258q0 91 -70 143t-162 52q-94 0 -164 -51.5t-73 -143.5v-264z" />
<glyph unicode="&#xf1;" horiz-adv-x="833" d="M2 0v985h111l16 -98q27 54 81.5 82t108.5 28q128 0 223 -96.5t95 -222.5v-678h-131v678q0 75 -55.5 130.5t-133.5 55.5q-76 0 -130 -55t-54 -131v-678h-131zM104 1171l93 68q12 -11 27 -27.5t16 -17.5v2q10 -10 15.5 -9.5t18.5 13.5q53 53 107 53q71 0 158 -118l-95 -70 q-18 16 -43 49q-9 12 -13.5 16.5t-12.5 3t-19 -13.5q-59 -53 -102 -53q-36 0 -75.5 27t-74.5 77z" />
<glyph unicode="&#xf2;" horiz-adv-x="845" d="M18 307v373q0 78 28 140t74.5 99.5t104 57.5t119.5 20q85 0 157.5 -33.5t120.5 -107t48 -176.5v-373q0 -77 -28 -139t-74.5 -100t-104 -58t-119.5 -20q-63 0 -120.5 20t-104 58t-74 100t-27.5 139zM111 1241l131 68l157 -248l-131 -2zM150 307q0 -87 58 -135.5t136 -48.5 q80 0 137.5 48.5t57.5 135.5v373q0 86 -58 136t-137 50q-78 0 -136 -50t-58 -136v-373z" />
<glyph unicode="&#xf3;" horiz-adv-x="845" d="M18 307v373q0 78 28 140t74.5 99.5t104 57.5t119.5 20q85 0 157.5 -33.5t120.5 -107t48 -176.5v-373q0 -77 -28 -139t-74.5 -100t-104 -58t-119.5 -20q-63 0 -120.5 20t-104 58t-74 100t-27.5 139zM150 307q0 -87 58 -135.5t136 -48.5q80 0 137.5 48.5t57.5 135.5v373 q0 86 -58 136t-137 50q-78 0 -136 -50t-58 -136v-373zM258 1063l174 246l152 -56l-183 -190h-143z" />
<glyph unicode="&#xf4;" horiz-adv-x="847" d="M20 307v373q0 78 28 140t74.5 99.5t104 57.5t119.5 20q85 0 157.5 -33.5t120.5 -107t48 -176.5v-373q0 -77 -28 -139t-74.5 -100t-104 -58t-119.5 -20q-63 0 -120.5 20t-104 58t-74 100t-27.5 139zM86 1159l203 150q25 19 44.5 19t45.5 -19q18 -14 72 -54q78 -52 122 -94 l-84 -96l-155 121q-13 -8 -40.5 -30.5t-41.5 -31.5q-16 -14 -51.5 -40t-36.5 -27zM152 307q0 -87 58 -135.5t136 -48.5q80 0 137.5 48.5t57.5 135.5v373q0 86 -58 136t-137 50q-78 0 -136 -50t-58 -136v-373z" />
<glyph unicode="&#xf5;" horiz-adv-x="845" d="M18 307v373q0 78 28 140t74.5 99.5t104 57.5t119.5 20q85 0 157.5 -33.5t120.5 -107t48 -176.5v-373q0 -77 -28 -139t-74.5 -100t-104 -58t-119.5 -20q-63 0 -120.5 20t-104 58t-74 100t-27.5 139zM82 1186l98 74q14 -12 29.5 -30t17.5 -20v2q10 -10 16.5 -9.5t20.5 14.5 q56 59 113 59q74 0 168 -131l-101 -78q-25 25 -45 55q-14 20 -21.5 22t-27.5 -16q-62 -59 -108 -59q-37 0 -79.5 30.5t-80.5 86.5zM150 307q0 -87 58 -135.5t136 -48.5q80 0 137.5 48.5t57.5 135.5v373q0 86 -58 136t-137 50q-78 0 -136 -50t-58 -136v-373z" />
<glyph unicode="&#xf6;" horiz-adv-x="849" d="M23 307v373q0 78 27.5 140t74.5 99.5t104 57.5t119 20q85 0 157.5 -33.5t120.5 -107t48 -176.5v-373q0 -77 -28 -139t-74.5 -100t-104 -58t-119.5 -20q-85 0 -157 33.5t-120 107.5t-48 176zM121 1155q0 38 23.5 62t60.5 24q34 0 58 -26.5t24 -59.5q0 -36 -23 -58t-59 -22 q-37 0 -60.5 22t-23.5 58zM154 307q0 -87 58 -135.5t136 -48.5q80 0 137.5 48.5t57.5 135.5v373q0 86 -58 136t-137 50q-78 0 -136 -50t-58 -136v-373zM369 1155q0 38 24 62t62 24q34 0 57 -26t23 -60q0 -36 -22 -58t-58 -22q-39 0 -62.5 22t-23.5 58z" />
<glyph unicode="&#xf8;" horiz-adv-x="843" d="M4 328v368q0 103 48.5 177.5t121 108.5t156.5 34q56 0 102 -12q3 7 8.5 25t8.5 26q1 3 5 17.5t5 17.5l123 -31l-37 -115q50 -42 80 -106.5t30 -141.5v-368q0 -77 -28 -139t-74 -100.5t-103.5 -58.5t-119.5 -20q-60 0 -99 10q-26 -76 -43 -122l-116 47l45 133 q-51 41 -82 107t-31 143zM135 328q0 -68 29 -111q7 19 38 108t48 136q27 79 73.5 220t65.5 198q-36 8 -59 8q-77 0 -136 -52t-59 -139v-368zM270 150q40 -9 60 -9q79 0 136.5 50t57.5 137v368q0 53 -26 107q-6 -19 -26.5 -73.5t-29.5 -84.5q-13 -37 -40.5 -116.5 t-32.5 -94.5z" />
<glyph unicode="&#xf9;" horiz-adv-x="819" d="M2 305v678h131v-678q0 -77 52.5 -130.5t127.5 -53.5q76 0 129.5 53.5t53.5 130.5v678h129v-678q0 -130 -89 -222.5t-223 -92.5q-131 0 -221 93t-90 222zM127 1245l127 76l152 -279l-127 -2z" />
<glyph unicode="&#xfa;" horiz-adv-x="817" d="M0 305q0 -129 90 -222t221 -93q134 0 223 92.5t89 222.5v678h-129v-678q0 -77 -53.5 -130.5t-129.5 -53.5q-75 0 -127.5 53.5t-52.5 130.5v678h-131v-678zM244 1040l143 236l123 -53l-150 -183h-116z" />
<glyph unicode="&#xfb;" horiz-adv-x="817" d="M0 305v678h131v-678q0 -77 52.5 -130.5t127.5 -53.5q76 0 129.5 53.5t53.5 130.5v678h129v-678q0 -130 -89 -222.5t-223 -92.5q-131 0 -221 93t-90 222zM111 1167l184 138q22 17 39.5 17t42.5 -17q21 -18 65 -50q81 -56 113 -86l-78 -88l-141 111q-12 -7 -38 -27t-38 -28 q-17 -15 -80 -62z" />
<glyph unicode="&#xfc;" horiz-adv-x="819" d="M2 305q0 -129 90 -222t221 -93q134 0 223 92.5t89 222.5v678h-129v-678q0 -77 -53.5 -130.5t-129.5 -53.5q-75 0 -127.5 53.5t-52.5 130.5v678h-131v-678zM104 1157q0 38 23.5 62t60.5 24q34 0 58 -26.5t24 -59.5q0 -36 -23 -58t-59 -22q-37 0 -60.5 22t-23.5 58z M352 1157q0 38 24 62t62 24q34 0 57 -26t23 -60q0 -36 -22 -58t-58 -22q-39 0 -62.5 22t-23.5 58z" />
<glyph unicode="&#xfd;" d="M0 301q0 -127 97 -218t225 -91q51 0 103 24t77 80v-200q0 -75 -54 -129t-129 -54q-78 0 -167 72l-86 -100q55 -45 126 -75t127 -30q127 0 220 92t94 224v1087h-131v-713q0 -69 -52 -108t-128 -39q-76 -2 -133.5 51t-57.5 127v682h-131v-682zM193 1071l172 285l149 -66 l-180 -219h-141z" />
<glyph unicode="&#xfe;" horiz-adv-x="825" d="M0 -203v1542h133v-270q68 74 180 74q128 0 223 -96.5t95 -223.5v-407q0 -129 -94.5 -223.5t-223.5 -94.5q-114 0 -180 74v-375q0 -11 -66.5 -11t-66.5 11zM133 399q0 -27 29 -80v-2q23 -40 64 -64t87 -24q77 0 132 55.5t55 131.5v407q0 77 -55 132t-132 55 q-71 0 -125.5 -51t-54.5 -123v-437zM162 313l2 -6z" />
<glyph unicode="&#xff;" d="M0 301q0 -127 97 -218t225 -91q51 0 103 24t77 80v-200q0 -75 -54 -129t-129 -54q-78 0 -167 72l-86 -100q55 -45 126 -75t127 -30q127 0 220 92t94 224v1087h-131v-713q0 -69 -52 -108t-128 -39q-76 -2 -133.5 51t-57.5 127v682h-131v-682zM106 1159q0 35 25.5 58.5 t63.5 23.5q34 0 59 -25t25 -57q0 -34 -24 -55t-60 -21q-39 0 -64 20.5t-25 55.5zM362 1159q0 35 25.5 58.5t65.5 23.5q35 0 58.5 -25t23.5 -57q0 -35 -22.5 -55.5t-59.5 -20.5q-40 0 -65.5 20.5t-25.5 55.5z" />
<glyph unicode="&#x152;" horiz-adv-x="1540" d="M0 326v784q0 81 33 146.5t87 106t121 62t138 21.5q67 0 138.5 -26t117.5 -70q14 42 50.5 63t72.5 21h493v-134l-493 -4v-495h473v-133h-473v-336q0 -79 57.5 -139t134.5 -60h301v-133h-301q-77 0 -154 52.5t-102 137.5q-32 -94 -123.5 -147t-191.5 -53q-71 0 -138 21.5 t-121 62t-87 106t-33 146.5zM137 326q0 -96 72 -150.5t170 -54.5q100 0 174 54.5t74 150.5v784q0 94 -74 148.5t-174 54.5q-98 0 -170 -54.5t-72 -148.5v-784z" />
<glyph unicode="&#x153;" horiz-adv-x="1394" d="M14 307v373q0 77 28 138.5t74.5 99t103 57.5t118.5 20q75 0 147 -40t113 -111q38 71 105 111t145 40q130 0 222.5 -92.5t92.5 -224.5q0 -135 -93 -226.5t-222 -91.5h-186v-53q0 -76 54.5 -130t131.5 -54q47 0 96.5 24t85.5 72l109 -78q-106 -149 -291 -149 q-75 0 -145.5 40t-106.5 107q-42 -67 -113 -106t-147 -39q-83 0 -154.5 33t-119.5 106t-48 174zM143 307q0 -87 57.5 -135.5t137.5 -48.5q78 0 136 48.5t58 135.5v373q0 86 -58 136t-136 50q-79 0 -137 -50t-58 -136v-373zM662 489h186q77 0 131.5 55.5t54.5 133.5 q0 76 -54.5 130t-131.5 54t-131.5 -55t-54.5 -133v-185z" />
<glyph unicode="&#x178;" horiz-adv-x="862" d="M-80 1434q77 -189 205 -484q98 -227 139 -327v-623h135v621l346 813h-147q-98 -228 -231 -564l-35 -141l-35 139q-107 277 -234 566h-143zM117 1581q0 38 23.5 62t60.5 24q34 0 58 -26.5t24 -59.5q0 -36 -23 -58t-59 -22q-37 0 -60.5 22t-23.5 58zM365 1581q0 38 24 62 t62 24q34 0 56.5 -26t22.5 -60q0 -37 -22 -58.5t-57 -21.5q-39 0 -62.5 22t-23.5 58z" />
<glyph unicode="&#x2c6;" horiz-adv-x="923" d="M125 1374l203 150q25 19 44.5 19t45.5 -19q38 -30 71 -54q81 -55 123 -94l-84 -96l-155 121q-13 -8 -40.5 -30.5t-41.5 -31.5q-16 -14 -51.5 -40t-36.5 -27z" />
<glyph unicode="&#x2dc;" horiz-adv-x="747" d="M45 1438l98 73q14 -12 30 -30t17 -19v2q7 -6 9 -7.5t7 -2t9 2.5t12 11q57 60 113 60q74 0 168 -131l-100 -78q-28 28 -46 55q-14 20 -21.5 22t-27.5 -16q-62 -59 -108 -59q-37 0 -79.5 30.5t-80.5 86.5z" />
<glyph unicode="&#x2000;" horiz-adv-x="913" />
<glyph unicode="&#x2001;" horiz-adv-x="1827" />
<glyph unicode="&#x2002;" horiz-adv-x="913" />
<glyph unicode="&#x2003;" horiz-adv-x="1827" />
<glyph unicode="&#x2004;" horiz-adv-x="609" />
<glyph unicode="&#x2005;" horiz-adv-x="456" />
<glyph unicode="&#x2006;" horiz-adv-x="304" />
<glyph unicode="&#x2007;" horiz-adv-x="304" />
<glyph unicode="&#x2008;" horiz-adv-x="228" />
<glyph unicode="&#x2009;" horiz-adv-x="365" />
<glyph unicode="&#x200a;" horiz-adv-x="101" />
<glyph unicode="&#x2010;" d="M-12 537v131h616v-131h-616z" />
<glyph unicode="&#x2011;" d="M-12 537v131h616v-131h-616z" />
<glyph unicode="&#x2012;" d="M-12 537v131h616v-131h-616z" />
<glyph unicode="&#x2013;" horiz-adv-x="976" d="M10 537v131h742v-131h-742z" />
<glyph unicode="&#x2014;" horiz-adv-x="1714" d="M4 537v131h1417v-131h-1417z" />
<glyph unicode="&#x2018;" horiz-adv-x="372" d="M12 1247l76 205l105 -4l-35 -172q22 -31 22 -53q0 -34 -24 -59t-60 -25q-40 0 -65.5 30t-18.5 78z" />
<glyph unicode="&#x2019;" horiz-adv-x="362" d="M6 1360q0 33 25 57.5t61 24.5q40 0 67 -30.5t17 -74.5l-57 -245l-88 4l18 200q-21 7 -32 26.5t-11 37.5z" />
<glyph unicode="&#x201a;" horiz-adv-x="331" d="M4 2v449l129 2v-453z" />
<glyph unicode="&#x201c;" horiz-adv-x="542" d="M12 1247l76 205l105 -4l-41 -184q13 -3 20.5 -15.5t7.5 -25.5q0 -34 -24 -59t-60 -25q-40 0 -65.5 30t-18.5 78zM236 1247l75 205l105 -4l-37 -184q24 -5 24 -41q0 -34 -24 -59t-60 -25q-40 0 -65 30t-18 78z" />
<glyph unicode="&#x201d;" horiz-adv-x="528" d="M2 1141l37 184q-25 6 -25 41q0 34 24 59t60 25q40 0 65.5 -30.5t18.5 -78.5l-76 -204zM225 1141l41 184q-13 3 -20.5 15.5t-7.5 25.5q0 34 24 59t60 25q40 0 65.5 -30.5t18.5 -78.5l-76 -204z" />
<glyph unicode="&#x201e;" horiz-adv-x="559" d="M20 2v459l132 2v-463zM270 2v459l129 2v-463z" />
<glyph unicode="&#x2022;" horiz-adv-x="845" d="M10 707q0 133 94.5 229t227.5 96q132 0 228.5 -96.5t96.5 -228.5q0 -134 -96 -228t-229 -94q-134 0 -228 93.5t-94 228.5zM143 707q0 -78 55.5 -134.5t133.5 -56.5q79 0 136.5 56.5t57.5 134.5q0 79 -57 135.5t-137 56.5q-78 0 -133.5 -56.5t-55.5 -135.5z" />
<glyph unicode="&#x2026;" horiz-adv-x="796" d="M0 84q0 34 23 59t59 25q34 0 57 -25.5t23 -58.5q0 -37 -22.5 -59.5t-57.5 -22.5q-37 0 -59.5 22.5t-22.5 59.5zM252 84q0 34 22.5 59t59.5 25q34 0 57 -25.5t23 -58.5q0 -37 -22.5 -59.5t-57.5 -22.5q-38 0 -60 22.5t-22 59.5zM514 84q0 34 23 59t59 25q34 0 57 -25.5 t23 -58.5q0 -37 -22.5 -59.5t-57.5 -22.5q-37 0 -59.5 22.5t-22.5 59.5z" />
<glyph unicode="&#x202f;" horiz-adv-x="365" />
<glyph unicode="&#x2039;" horiz-adv-x="618" d="M-2.5 686.5q1.5 12.5 25.5 44.5q16 22 58 80t64 88q92 124 131 176l107 -78l-231 -313q47 -61 114 -156q115 -154 117 -157l-104 -90l-263 364v2q-20 27 -18.5 39.5z" />
<glyph unicode="&#x203a;" horiz-adv-x="645" d="M35 993l110 76q9 -14 129 -176q79 -106 123 -168q21 -28 23 -41t-14 -41v-2q-4 -5 -27.5 -36t-34.5 -48q-20 -27 -203 -281l-104 89q17 24 40 55.5t50.5 68.5t40.5 54q40 53 100 137z" />
<glyph unicode="&#x205f;" horiz-adv-x="456" />
<glyph unicode="&#x2122;" horiz-adv-x="1449" d="M23 1270v131h471v-131h-175v-617h-131v617h-165zM549 647v680q0 38 18 58t43 20q39 0 66 -43l207 -449l75 189q109 228 121 252q7 20 28 33.5t42 13.5q25 0 42 -19t17 -55v-680h-127l23 490l-98 -224q-20 -41 -38 -76.5t-22 -43.5q-23 -52 -65 -52t-62 50v-3 q-35 70 -67 141.5t-55 127t-31 71.5l-9 17l25 -498h-133z" />
<glyph unicode="&#x25fc;" horiz-adv-x="983" d="M0 0v983h983v-983h-983z" />
<glyph unicode="&#xfb01;" horiz-adv-x="663" d="M4 2v1077q0 137 108 230.5t257 93.5v-131q-95 0 -165.5 -57t-70.5 -136v-321h369v-129h-369v-627h-129zM358 979q0 34 23.5 55t54.5 21t54.5 -21t23.5 -55q0 -29 -24.5 -53.5t-53.5 -24.5t-53.5 24.5t-24.5 53.5zM373 0v700q0 11 64.5 11.5t64.5 -11.5v-700h-129z" />
<glyph unicode="&#xfb02;" horiz-adv-x="776" d="M-27 -2v1081q0 137 108 230.5t257 93.5v-131q-94 0 -164 -57t-70 -136v-321h258q10 0 10 -64.5t-10 -64.5h-258v-631h-131zM334 324v1079h131v-1079q0 -80 63 -137.5t156 -57.5v-129q-151 0 -250.5 91.5t-99.5 232.5z" />
</font>
</defs>
</svg>
